<?xml version="1.0" standalone="no"?><!DOCTYPE svg PUBLIC "-//W3C//DTD SVG 1.1//EN" "http://www.w3.org/Graphics/SVG/1.1/DTD/svg11.dtd"><svg t="1767152882769" class="icon" viewBox="0 0 1024 1024" version="1.1" xmlns="http://www.w3.org/2000/svg" p-id="7471" xmlns:xlink="http://www.w3.org/1999/xlink" width="256" height="256"><path d="M434.217 122.88h319.447q208.896 0 208.896 208.896v319.488q0 208.896-208.896 208.896H434.217q-208.896 0-208.896-208.896V331.776q0-208.896 208.896-208.896z" fill="#51E6F9" p-id="7472"></path><path d="M299.418 860.16c80.322 44.483 159.662 66.765 238.018 66.765 78.357 0 165.192-22.282 260.506-66.765C727.204 969.4 640.369 1024 537.436 1024c-102.932 0-182.272-54.6-237.977-163.84z" fill="#EB6019" p-id="7473"></path><path d="M901.12 477.84V614.4a245.76 245.76 0 0 1-245.76 245.76H307.2A245.76 245.76 0 0 1 61.44 614.4V477.84h839.68zM655.36 0a245.76 245.76 0 0 1 245.76 245.76v129.68H61.44V245.76A245.76 245.76 0 0 1 307.2 0h348.16z" fill="#1E82A9" p-id="7474"></path></svg>